<?xml version="1.0" standalone="no"?>
<!DOCTYPE svg PUBLIC "-//W3C//DTD SVG 1.1//EN" "http://www.w3.org/Graphics/SVG/1.1/DTD/svg11.dtd" >
<svg xmlns="http://www.w3.org/2000/svg">
<metadata>
This is a custom SVG webfont generated by Font Squirrel.
Copyright   : Copyright c 2011 by GM All rights reserved
Foundry     : GM
</metadata>
<defs>
<font id="LouisBold" horiz-adv-x="1187" >
<font-face units-per-em="2048" ascent="1536" descent="-512" />
<missing-glyph horiz-adv-x="450" />
<glyph unicode=" "  horiz-adv-x="450" />
<glyph unicode="&#x09;" horiz-adv-x="450" />
<glyph unicode="&#xa0;" horiz-adv-x="450" />
<glyph unicode="!" horiz-adv-x="581" d="M131 1536h320l-48 -1022h-225zM135 0v322h311v-322h-311z" />
<glyph unicode="&#x22;" horiz-adv-x="851" d="M98 954v582h291l-55 -582h-236zM504 954v582h291l-56 -582h-235z" />
<glyph unicode="#" horiz-adv-x="1179" d="M61 367v180h195l37 340h-199v180h217l39 367h195l-39 -367h235l39 367h195l-39 -367h180v-180h-198l-37 -340h202v-180h-221l-37 -367h-194l37 367h-236l-37 -367h-194l37 367h-177zM451 547h235l37 340h-236z" />
<glyph unicode="$" horiz-adv-x="1179" d="M111 504h245q4 -80 55.5 -142.5t131.5 -76.5v391q-102 39 -163 68.5t-120 78.5t-86 118t-27 163q0 160 109 258t287 115v182h123v-184q182 -16 290.5 -127t100.5 -310h-250q0 78 -37 136.5t-104 70.5v-350q188 -63 294.5 -165.5t106.5 -270.5t-112.5 -275.5 t-288.5 -126.5v-200h-123v200q-201 14 -314.5 137.5t-117.5 309.5zM395 1104q0 -113 148 -168v311q-76 -14 -112 -54t-36 -89zM666 289q150 41 149 172q0 115 -149 172v-344z" />
<glyph unicode="%" horiz-adv-x="1179" d="M8 1219v18q0 145 82 232t209 87t209 -87t82 -232v-18q0 -145 -82 -233.5t-209 -88.5t-209 88.5t-82 233.5zM133 0l739 1536h172l-739 -1536h-172zM201 1219q0 -141 98 -141.5t98 141.5v18q0 141 -98 141t-98 -141v-18zM588 301v18q0 145 82 232.5t209 87.5t208.5 -87 t81.5 -233v-18q0 -145 -81.5 -233t-208.5 -88t-209 88t-82 233zM780 301q0 -141 98.5 -141t98.5 141v18q0 141 -98.5 141.5t-98.5 -141.5v-18z" />
<glyph unicode="&#x26;" horiz-adv-x="1341" d="M78 428q0 233 239 395q-133 172 -133 346q0 180 117 283.5t277 103.5q184 0 293.5 -97t109.5 -263q0 -113 -71.5 -227.5t-207.5 -202.5l209 -244q43 133 50 252h268q-25 -258 -133 -467l241 -276v-31h-333l-97 115q-164 -133 -342 -133q-211 0 -349 121.5t-138 324.5z M352 428q0 -92 57.5 -142t149.5 -50q111 0 191 69l-283 328q-115 -86 -115 -205zM453 1165q0 -98 98 -217q78 45 120 109.5t42 122.5q0 47 -34 85t-93 38q-66 0 -99.5 -40.5t-33.5 -97.5z" />
<glyph unicode="'" horiz-adv-x="446" d="M98 954v582h291l-55 -582h-236z" />
<glyph unicode="(" horiz-adv-x="761" d="M125 684q0 580 373 1059h247q-342 -496 -342 -1059q0 -561 342 -1057h-247q-373 479 -373 1057z" />
<glyph unicode=")" horiz-adv-x="761" d="M16 -373q342 496 342 1059q0 561 -342 1057h248q373 -479 373 -1057q0 -580 -373 -1059h-248z" />
<glyph unicode="*" horiz-adv-x="954" d="M49 1165l68 209l272 -110l-24 292h225l-25 -292l273 110l67 -209l-287 -69q31 -37 96.5 -110t96.5 -112l-182 -133l-152 248l-151 -248l-183 133l193 222q-41 10 -139.5 32.5t-147.5 36.5z" />
<glyph unicode="+" horiz-adv-x="1179" d="M51 494v241h416v453h246v-453h415v-241h-415v-453h-246v453h-416z" />
<glyph unicode="," horiz-adv-x="522" d="M78 -260q186 59 186 231q0 29 -26 29h-154v354h350v-268q0 -102 -16 -166q-63 -266 -340 -305v125z" />
<glyph unicode="-" horiz-adv-x="905" d="M78 678v242h749v-242h-749z" />
<glyph unicode="." horiz-adv-x="542" d="M100 0v354h342v-354h-342z" />
<glyph unicode="/" horiz-adv-x="901" d="M33 -158l598 1805h237l-596 -1805h-239z" />
<glyph unicode="0" horiz-adv-x="1241" d="M129 498v540q0 129 25 205q45 143 174 228t292.5 85t292.5 -85t174 -228q25 -76 25 -205v-540q0 -129 -25 -205q-45 -143 -174 -228t-292.5 -85t-292.5 85t-174 228q-25 76 -25 205zM428 500q0 -82 16 -123q43 -109 176.5 -109t176.5 109q16 41 16 123v536q0 82 -16 123 q-43 109 -176.5 109t-176.5 -109q-16 -41 -16 -123v-536z" />
<glyph unicode="1" horiz-adv-x="825" d="M41 930v332l356 274h256v-1536h-299v1171z" />
<glyph unicode="2" horiz-adv-x="1142" d="M106 0v123q0 219 91.5 363.5t251.5 271.5q168 133 217 190q78 92 77 193q0 72 -44 110.5t-119 38.5q-172 0 -172 -188v-45h-291v45q0 100 33 184q49 123 164.5 196.5t265.5 73.5q199 0 330.5 -112.5t131.5 -298.5q0 -162 -90 -288t-245 -249q-78 -61 -123 -100 t-97.5 -106.5t-58.5 -120.5h616v-281h-938z" />
<glyph unicode="3" horiz-adv-x="1171" d="M70 453h290q2 -197 211 -197q92 0 150.5 56.5t58.5 152.5q0 86 -66.5 149.5t-193.5 63.5h-127v262h127q113 0 169 54.5t56 135.5q0 68 -49 112t-121 44q-90 0 -136 -47t-46 -133h-293q0 199 132.5 324.5t342.5 125.5q207 0 337 -110.5t130 -278.5q0 -240 -206 -348 q121 -53 181 -162.5t60 -220.5q0 -193 -144.5 -324.5t-361.5 -131.5q-231 0 -366 128t-135 345z" />
<glyph unicode="4" horiz-adv-x="1210" d="M66 362v242l550 952h351v-925h202v-269h-202v-362h-297v362h-604zM385 631h285v514h-2z" />
<glyph unicode="5" horiz-adv-x="1202" d="M127 475h297q6 -209 178 -209q59 0 107.5 30t68.5 81q16 35 17 117v81q0 66 -11 107q-31 109 -168 109q-129 0 -198 -113l-271 2v856h871v-281h-574v-280q106 96 252 96q141 0 242.5 -81t138.5 -230q16 -63 17 -166v-107q0 -123 -25 -196q-104 -311 -465 -311 q-207 0 -339 134t-138 361z" />
<glyph unicode="6" horiz-adv-x="1222" d="M129 498v540q0 129 25 205q45 143 173 228t291 85q186 0 317.5 -103t158.5 -306h-314q-33 125 -162 125q-61 0 -107 -30t-67 -81q-16 -41 -16 -125v-151q106 115 270 114q143 0 248 -73.5t146 -214.5q20 -68 20 -172v-41q0 -129 -25 -205q-45 -143 -174 -228t-292.5 -85 t-292.5 85t-174 228q-25 76 -25 205zM428 500q0 -82 16 -123q43 -109 176.5 -109t176.5 109q16 41 16 123v18q0 68 -12 107q-27 96 -158 96q-90 0 -152.5 -58.5t-62.5 -154.5v-8z" />
<glyph unicode="7" horiz-adv-x="1060" d="M53 1255v281h946v-236q-393 -737 -442 -1300h-317q49 528 424 1255h-611z" />
<glyph unicode="8" horiz-adv-x="1208" d="M92 446q0 123 61.5 222.5t161.5 146.5q-88 55 -138 145.5t-50 190.5q0 188 130 296.5t347 108.5t347 -108.5t130 -296.5q0 -100 -50 -190.5t-138 -145.5q100 -47 161.5 -146.5t61.5 -222.5q0 -199 -139 -332.5t-372.5 -133.5t-373 133.5t-139.5 332.5zM389 467 q0 -100 58.5 -160.5t156.5 -60.5t156.5 60.5t58.5 160.5q0 82 -56 140.5t-158.5 58.5t-159 -58.5t-56.5 -140.5zM424 1147q0 -76 48 -126t132 -50t132 50t48 126t-49 118t-131 42t-131 -42t-49 -118z" />
<glyph unicode="9" horiz-adv-x="1222" d="M111 997v41q0 129 24 205q45 143 174 228t293 85t293 -85t174 -228q25 -76 25 -205v-540q0 -129 -25 -205q-45 -143 -173 -228t-292 -85q-186 0 -317 103t-158 306h313q33 -125 162 -125q61 0 107.5 30t66.5 81q16 41 17 125v151q-106 -115 -271 -114q-143 0 -247.5 73.5 t-145.5 214.5q-20 68 -20 172zM410 1018q0 -68 12 -107q27 -96 158 -96q90 0 152.5 58.5t62.5 154.5v8q0 82 -17 123q-43 109 -176 109t-176 -109q-16 -41 -16 -123v-18z" />
<glyph unicode=":" horiz-adv-x="577" d="M119 0v354h342v-354h-342zM119 793v354h342v-354h-342z" />
<glyph unicode=";" horiz-adv-x="577" d="M111 -260q186 59 186 231q0 29 -27 29h-153v354h350v-268q0 -102 -16 -166q-63 -266 -340 -305v125zM117 793v354h342v-354h-342z" />
<glyph unicode="&#x3c;" horiz-adv-x="1148" d="M102 489v250l945 441v-267l-682 -299l682 -299v-266z" />
<glyph unicode="=" horiz-adv-x="1118" d="M92 268v242h934v-242h-934zM92 719v242h934v-242h-934z" />
<glyph unicode="&#x3e;" horiz-adv-x="1148" d="M102 49v266l682 299l-682 299v267l945 -441v-250z" />
<glyph unicode="?" horiz-adv-x="1036" d="M61 1077v47q0 186 128 309t315 123q215 0 336 -106.5t121 -261.5q0 -100 -43.5 -173t-100.5 -117t-112.5 -89t-83 -118t-5.5 -175h-266q-29 98 -16.5 178t48.5 133.5t84 101.5t93 83t76 78t31 88q0 57 -45.5 91t-116.5 34q-76 0 -122 -52.5t-46 -126.5v-47h-275zM338 0 v322h311v-322h-311z" />
<glyph unicode="@" horiz-adv-x="1908" d="M125 461l29 270q41 406 269 605.5t566 199.5h47q164 0 296 -40t236.5 -124t160 -231.5t49.5 -347.5q-6 -197 -52.5 -362t-143.5 -271.5t-226 -98.5q-162 10 -213 175q-117 -166 -283 -166q-174 0 -257 123.5t-56 302.5l28 206q31 211 140.5 324t275.5 113q150 0 234 -148 l39 121h151l-102 -729q-25 -180 73 -180q102 0 172 185t76 405q6 164 -38 282.5t-129 186t-191.5 99.5t-239.5 32h-47q-266 0 -451.5 -167t-220.5 -497l-28 -270q-29 -274 113.5 -448.5t428.5 -174.5h25q125 0 254 33t209 82l51 -131q-98 -55 -243.5 -91t-280.5 -36h-25 q-350 0 -541.5 208t-154.5 560zM768 504q-12 -86 12.5 -152.5t110.5 -66.5q78 0 144.5 71.5t78.5 157.5l23 176q14 96 -22 165t-124 69q-78 0 -132 -68t-66 -164z" />
<glyph unicode="A" horiz-adv-x="1253" d="M20 0l431 1536h352l430 -1536h-305l-103 395h-397l-102 -395h-306zM502 674h250l-123 485h-8z" />
<glyph unicode="B" horiz-adv-x="1271" d="M152 0v1536h477q141 0 223 -25q131 -41 204.5 -136t73.5 -238q0 -215 -208 -330q129 -49 193.5 -146.5t64.5 -214.5q0 -147 -77 -258.5t-210 -158.5q-82 -29 -217 -29h-524zM451 285h213q80 0 120 22q96 49 97 160q0 117 -113 166q-43 16 -119 16h-198v-364zM451 911h178 q63 0 100 19q104 45 105 166q0 104 -103 141q-39 12 -100 12h-180v-338z" />
<glyph unicode="C" horiz-adv-x="1255" d="M129 516v504q0 143 39 235q57 141 187 221t284 80h16q156 0 287 -79.5t186 -221.5q39 -94 41 -260h-303q-4 119 -24 164q-25 55 -75 83t-108 28h-24q-129 0 -182 -111q-25 -49 -25 -139v-500q0 -94 25 -145q51 -109 182 -109h24q133 0 183 109q23 47 22 178h303 q-2 -178 -39 -272q-55 -143 -184 -222t-285 -79h-20q-154 0 -284 79.5t-187 221.5q-39 92 -39 235z" />
<glyph unicode="D" horiz-adv-x="1296" d="M152 0v1536h485q371 0 491 -301q39 -100 39 -236v-462q0 -135 -39 -236q-121 -301 -491 -301h-485zM449 287h196q150 0 203 110q23 47 22 144v452q0 96 -22 144q-53 111 -203 110h-196v-960z" />
<glyph unicode="E" horiz-adv-x="1157" d="M152 0v1536h927v-276h-628v-334h518v-277h-518v-373h628v-276h-927z" />
<glyph unicode="F" horiz-adv-x="1150" d="M152 0v1536h931v-276h-632v-336h518v-277h-518v-647h-299z" />
<glyph unicode="G" horiz-adv-x="1300" d="M129 516v504q0 143 39 235q57 141 187 221t284 80h16q156 0 287 -79.5t186 -221.5q33 -86 39 -215h-303q-6 86 -22 119q-25 55 -75 83t-108 28h-24q-129 0 -182 -111q-25 -49 -25 -139v-500q0 -94 25 -145q51 -109 186 -109h14q90 0 152.5 61.5t62.5 182.5v39h-231v264 h526v-813h-129l-49 170h-2q-53 -92 -145.5 -141t-204.5 -49h-15q-139 0 -266 79.5t-184 221.5q-39 92 -39 235z" />
<glyph unicode="H" horiz-adv-x="1363" d="M152 0v1536h299v-592h462v592h299v-1536h-299v657h-462v-657h-299z" />
<glyph unicode="I" horiz-adv-x="602" d="M152 0v1536h299v-1536h-299z" />
<glyph unicode="J" horiz-adv-x="1161" d="M88 500v96h297v-104q0 -98 29 -150q43 -78 139 -78q94 0 139 78q29 51 29 141v1053h297v-1055q0 -133 -43 -239q-53 -125 -163 -193.5t-259 -68.5q-147 0 -257 68.5t-163 193.5q-45 102 -45 258z" />
<glyph unicode="K" horiz-adv-x="1292" d="M152 0v1536h297v-580l2 -2q39 49 71 90l398 492h348l-500 -602l518 -934h-342l-375 705l-120 -158v-547h-297z" />
<glyph unicode="L" horiz-adv-x="1150" d="M152 0v1536h299v-1251h643v-285h-942z" />
<glyph unicode="M" horiz-adv-x="1605" d="M152 0v1536h325l326 -819l325 819h326v-1536h-278v858l2 119h-2l-287 -696h-172l-287 696h-2q2 -68 2 -119v-858h-278z" />
<glyph unicode="N" horiz-adv-x="1363" d="M152 0v1536h313l469 -981h2q-2 68 -2 119v862h278v-1536h-315l-467 981h-2q2 -68 2 -119v-862h-278z" />
<glyph unicode="O" horiz-adv-x="1292" d="M129 516v504q0 139 37 235q57 143 186 222t283 79h22q152 0 281 -79.5t186 -221.5q39 -92 39 -235v-504q0 -143 -39 -235q-57 -141 -186 -221t-281 -80h-22q-154 0 -283 78.5t-186 222.5q-37 96 -37 235zM428 520q0 -104 23 -147q51 -109 184 -109h22q133 0 185 109 q23 47 22 147v496q0 100 -22 147q-51 109 -185 109h-22q-133 0 -184 -109q-23 -43 -23 -147v-496z" />
<glyph unicode="P" horiz-adv-x="1284" d="M152 0v1536h497q147 0 242 -35q137 -51 218 -172t81 -282q0 -160 -81 -279t-218 -172q-80 -33 -232 -33h-208v-563h-299zM451 848h196q94 0 144 26q100 53 100 173q0 123 -100 176q-45 27 -144 26h-196v-401z" />
<glyph unicode="Q" horiz-adv-x="1292" d="M129 516v504q0 139 37 235q57 143 186 222t283 79h22q152 0 281 -79.5t186 -221.5q39 -92 39 -235v-504q0 -143 -39 -235q-39 -96 -114 -166q94 -33 276 -37v-254q-367 12 -563 160q-45 -4 -66 -4h-22q-154 0 -283 78.5t-186 222.5q-37 96 -37 235zM428 520 q0 -104 23 -147q51 -109 184 -109h22q133 0 185 109q23 47 22 147v496q0 100 -22 147q-51 109 -185 109h-22q-133 0 -184 -109q-23 -43 -23 -147v-496z" />
<glyph unicode="R" horiz-adv-x="1271" d="M152 0v1536h473q102 0 180 -16q156 -35 243 -134.5t87 -257.5q0 -117 -60.5 -209t-173.5 -143v-2q199 -70 215 -291l23 -274q10 -141 86 -197v-12h-320q-49 51 -61 184l-21 242q-8 109 -64.5 155t-172.5 46h-137v-627h-297zM449 899h165q104 0 162 53.5t58 139.5 q0 119 -123 149q-45 10 -105 10h-157v-352z" />
<glyph unicode="S" horiz-adv-x="1230" d="M84 477h295q4 -100 70.5 -162.5t164.5 -62.5q96 0 158 47t62 131q0 127 -201 201l-129 47q-90 33 -150.5 65.5t-117 84t-84 128t-27.5 177.5q0 195 141.5 309t354.5 114q229 0 366 -120q128 -112 128 -330q0 -16 -1 -33h-293q0 94 -55 151.5t-158 57.5q-88 0 -136 -41 t-48 -106q0 -121 160 -179l131 -45q418 -143 418 -477q0 -203 -144.5 -328.5t-367.5 -125.5q-248 0 -389.5 137t-147.5 360z" />
<glyph unicode="T" horiz-adv-x="1157" d="M41 1249v287h1075v-287h-387v-1249h-299v1249h-389z" />
<glyph unicode="U" horiz-adv-x="1320" d="M143 516v1020h299v-1016q0 -104 23 -147q51 -109 184 -109h23q133 0 184 109q23 47 23 147v1016h299v-1020q0 -143 -39 -235q-57 -141 -186.5 -221t-280.5 -80h-23q-154 0 -282.5 78.5t-186.5 222.5q-37 96 -37 235z" />
<glyph unicode="V" horiz-adv-x="1257" d="M20 1536h310l295 -1169h4l299 1169h309l-428 -1536h-360z" />
<glyph unicode="W" horiz-adv-x="1880" d="M49 1536h318l174 -1069h12l235 1069h304l235 -1069h12l174 1069h318l-313 -1536h-351l-227 1044l-227 -1044h-351z" />
<glyph unicode="X" horiz-adv-x="1286" d="M14 0l463 809l-411 727h342l233 -461l236 461h342l-410 -727l463 -809h-342l-289 545l-287 -545h-340z" />
<glyph unicode="Y" horiz-adv-x="1265" d="M2 1536h338l289 -565h4l293 565h338l-482 -862v-674h-299v672z" />
<glyph unicode="Z" horiz-adv-x="1222" d="M88 0v240l649 1009h-631v287h1004v-240l-649 -1011h669v-285h-1042z" />
<glyph unicode="[" horiz-adv-x="808" d="M170 -389v2148h612v-190h-346v-1768h346v-190h-612z" />
<glyph unicode="\" horiz-adv-x="901" d="M33 1647h237l598 -1805h-239z" />
<glyph unicode="]" horiz-adv-x="808" d="M27 -199h346v1768h-346v190h612v-2148h-612v190z" />
<glyph unicode="^" horiz-adv-x="1040" d="M57 799l342 757h242l342 -757h-256l-207 497l-207 -497h-256z" />
<glyph unicode="_" horiz-adv-x="905" d="M-4 -115h913v-213h-913v213z" />
<glyph unicode="`" horiz-adv-x="1097" d="M203 1704l2 25h317l240 -383h-199z" />
<glyph unicode="a" horiz-adv-x="1142" d="M98 360q0 123 61.5 208t172.5 124q86 29 211 29h172v29q0 190 -156 190q-129 0 -153 -119h-277q27 170 145.5 258t305.5 88q307 0 395 -245q29 -78 29 -211v-711h-177l-30 176h-2q-106 -197 -322 -196q-164 0 -269.5 99t-105.5 281zM385 371q0 -147 143 -148 q82 0 135.5 65.5t53.5 172.5v47h-154q-61 0 -92 -12q-86 -33 -86 -125z" />
<glyph unicode="b" d="M145 0v1608h289v-447l-2 -119h2q111 125 273 125q125 0 220 -77.5t132 -215.5q20 -70 20 -186v-213q0 -113 -18 -186q-37 -150 -140.5 -229.5t-248.5 -79.5q-94 0 -177 43t-133 122h-2l-24 -145h-191zM434 502q0 -57 10 -103q18 -63 64.5 -105t107.5 -42q125 0 162 125 q12 43 13 115v170q0 78 -15 118q-35 113 -151 113q-53 0 -100.5 -38t-71.5 -93q-18 -43 -19 -115v-145z" />
<glyph unicode="c" horiz-adv-x="1107" d="M109 469v209q0 115 32 213q47 131 160 203.5t266.5 72.5t266 -72.5t159.5 -203.5q25 -76 31 -158h-293q-2 29 -12 53q-39 109 -151.5 109t-151.5 -109q-18 -49 -19 -131v-163q0 -82 19 -132q39 -109 151.5 -108.5t151.5 108.5q2 6 6 19.5t4 17.5h293q-6 -80 -29 -141 q-45 -131 -158.5 -203.5t-267 -72.5t-266.5 72.5t-160 203.5q-32 98 -32 213z" />
<glyph unicode="d" d="M109 475v199q0 113 18 186q37 147 135 227t223 80q162 0 269 -104h2q-2 68 -2 119v426h288v-1608h-190l-25 145h-2q-49 -80 -132 -122.5t-177 -42.5q-145 0 -248.5 79.5t-140.5 229.5q-18 73 -18 186zM397 487q0 -78 15 -118q35 -113 151 -113q53 0 100.5 38t71.5 93 q18 43 19 115v145q0 57 -11 103q-18 63 -64 105t-108 42q-125 0 -161 -125q-12 -43 -13 -115v-170z" />
<glyph unicode="e" horiz-adv-x="1132" d="M109 469v209q0 115 32 213q47 131 160 203.5t266.5 72.5t266 -72.5t159.5 -203.5q33 -98 33 -213v-182h-629v-29q0 -82 19 -131q39 -109 151 -109q115 0 156 125h293q-6 -55 -23 -96q-45 -131 -158.5 -203.5t-267 -72.5t-266.5 72.5t-160 203.5q-32 98 -32 213zM397 713 h340q-2 63 -18 104q-39 109 -151.5 109t-151.5 -109q-15 -38 -19 -104z" />
<glyph unicode="f" horiz-adv-x="782" d="M37 899v248h170v67q0 416 444 416q70 0 125 -6v-270q-49 4 -82 4q-104 0 -151 -36t-47 -126v-49h252v-248h-252v-899h-289v899h-170z" />
<glyph unicode="g" d="M109 479v193q0 113 18 186q37 150 140.5 229.5t248.5 79.5q94 0 177 -43t132 -123h2l25 146h190v-1135q0 -115 -20 -182q-43 -150 -160 -233.5t-278 -83.5q-180 0 -305 100t-156 283h283q14 -59 62 -94t116 -35q78 0 124 56t46 163v20l2 119h-2q-111 -125 -273 -125 q-125 0 -220 78t-132 215q-20 69 -20 186zM397 506q0 -78 15 -119q35 -113 149 -113q53 0 99.5 38t70.5 94q18 43 19 114v125q0 57 -11 103q-18 63 -63 105t-107 42q-123 0 -159 -125q-12 -43 -13 -115v-149z" />
<glyph unicode="h" horiz-adv-x="1218" d="M145 0v1608h289v-447l-2 -119h2q111 125 273 125q125 0 220 -77.5t132 -215.5q20 -70 20 -186v-688h-288v662q0 78 -15 118q-35 113 -151 113q-53 0 -100.5 -38t-71.5 -93q-18 -43 -19 -115v-647h-289z" />
<glyph unicode="i" horiz-adv-x="567" d="M139 0v1147h289v-1147h-289zM139 1311v288h289v-288h-289z" />
<glyph unicode="j" horiz-adv-x="587" d="M-94 -207q49 -4 76 -4q92 0 135 40t43 132v1186h289v-1194q0 -225 -112 -330.5t-312 -105.5q-63 0 -119 6v270zM160 1311v288h289v-288h-289z" />
<glyph unicode="k" horiz-adv-x="1146" d="M145 0v1608h289v-809l326 348h360l-393 -408l408 -739h-342l-279 553l-80 -86v-467h-289z" />
<glyph unicode="l" horiz-adv-x="579" d="M145 0v1608h289v-1608h-289z" />
<glyph unicode="m" horiz-adv-x="1814" d="M145 0v1147h183l26 -146h2q104 166 314 166q205 0 309 -161q106 162 311 161q139 0 234.5 -76.5t132.5 -216.5q18 -74 18 -186v-688h-289v662q0 231 -151 231q-51 0 -95 -37t-67 -94q-18 -45 -18 -92v-670h-289v662q0 231 -152 231q-51 0 -95 -37t-66 -94 q-18 -43 -19 -115v-647h-289z" />
<glyph unicode="n" horiz-adv-x="1218" d="M145 0v1147h191l24 -146h2q104 166 320 166q143 0 241.5 -76.5t135.5 -216.5q20 -70 20 -186v-688h-288v662q0 78 -15 118q-35 113 -151 113q-53 0 -100.5 -38t-71.5 -93q-18 -43 -19 -115v-647h-289z" />
<glyph unicode="o" horiz-adv-x="1134" d="M109 469v209q0 115 32 213q47 131 160 203.5t266.5 72.5t266 -72.5t159.5 -203.5q33 -98 33 -213v-209q0 -115 -33 -213q-47 -131 -159.5 -203.5t-266 -72.5t-266.5 72.5t-160 203.5q-32 98 -32 213zM397 492q0 -82 19 -132q39 -109 151.5 -108.5t151.5 108.5 q18 49 18 132v163q0 82 -18 131q-39 109 -151.5 109t-151.5 -109q-18 -49 -19 -131v-163z" />
<glyph unicode="p" d="M145 -500v1647h191l24 -146h2q49 80 132.5 123t177.5 43q145 0 248.5 -79.5t140.5 -229.5q18 -74 18 -186v-199q0 -113 -18 -186q-37 -147 -135.5 -227t-223.5 -80q-162 0 -268 104h-2q2 -68 2 -119v-465h-289zM434 500q0 -57 10 -103q18 -63 64.5 -105t107.5 -42 q125 0 162 125q12 43 13 114v170q0 78 -15 119q-35 113 -151 113q-53 0 -100.5 -38t-71.5 -93q-18 -43 -19 -115v-145z" />
<glyph unicode="q" d="M109 459v213q0 113 18 186q37 150 140.5 229.5t248.5 79.5q94 0 177 -43t132 -123h2l25 146h190v-1647h-288v486l2 118h-2q-111 -125 -273 -124q-125 0 -220 77.5t-132 214.5q-20 70 -20 187zM397 485q0 -78 15 -118q35 -113 151 -113q53 0 100.5 38t71.5 93 q18 43 19 115v145q0 57 -11 103q-18 63 -64 105t-108 42q-125 0 -161 -125q-12 -43 -13 -115v-170z" />
<glyph unicode="r" horiz-adv-x="913" d="M145 0v1147h191l31 -176h2q123 197 329 196q90 0 172 -20l-6 -289q-74 27 -168 27q-106 0 -184 -90t-78 -226v-569h-289z" />
<glyph unicode="s" horiz-adv-x="1030" d="M74 348h282q33 -139 164 -139q63 0 104 33q38 31 38 82q0 65 -46 100q-43 33 -149 53q-96 18 -166 52t-106.5 70t-58 82t-27 78t-5.5 70q0 150 119 244t287 94q180 0 291.5 -87t130.5 -246h-283q-23 104 -141 104q-53 0 -89 -25.5t-36 -68.5q0 -94 170 -127 q395 -80 395 -379q0 -160 -118.5 -259t-299.5 -99q-190 0 -310.5 90t-145.5 278z" />
<glyph unicode="t" horiz-adv-x="827" d="M37 899v248h180v287h289v-287h244v-248h-244v-434q0 -100 33.5 -153.5t132.5 -53.5q37 0 88 6v-264q-59 -6 -113 -6q-182 0 -282.5 65.5t-133.5 212.5q-14 66 -14 181v446h-180z" />
<glyph unicode="u" horiz-adv-x="1218" d="M139 459v688h289v-662q0 -78 14 -118q35 -113 152 -113q53 0 100 38t72 93q18 43 18 115v647h289v-1147h-190l-25 145h-2q-104 -166 -319 -165q-143 0 -241.5 76.5t-135.5 215.5q-21 70 -21 187z" />
<glyph unicode="v" horiz-adv-x="1081" d="M14 1147h303l222 -793h4l219 793h305l-375 -1147h-303z" />
<glyph unicode="w" horiz-adv-x="1609" d="M31 1147h299l155 -744h4l189 744h252l188 -741h4l156 741h301l-303 -1147h-285l-184 700h-4l-185 -700h-286z" />
<glyph unicode="x" horiz-adv-x="1085" d="M20 0l371 598l-338 549h318l172 -324l170 324h321l-340 -549l371 -598h-322l-200 375l-203 -375h-320z" />
<glyph unicode="y" horiz-adv-x="1122" d="M14 -143q115 -25 176 -25q156 0 213 170l15 41l-402 1104h306l245 -756h4l232 756h305l-424 -1198q-139 -391 -465 -391q-109 0 -205 26v273z" />
<glyph unicode="z" horiz-adv-x="1060" d="M74 0v227l504 647h-486v273h862v-229l-501 -646h534v-272h-913z" />
<glyph unicode="{" horiz-adv-x="911" d="M61 567v232h60q115 0 164 62.5t22 225.5l-37 236q-37 231 82 331.5t357 100.5h182v-190h-100q-35 0 -59.5 -2t-57.5 -7.5t-52.5 -15.5t-42 -28.5t-29.5 -45t-14.5 -64.5t5.5 -87l37 -223q53 -328 -193 -410q242 -82 193 -408l-37 -229q-12 -84 2 -136t58 -74.5t84 -29 t106 -6.5h100v-190h-182q-238 0 -355.5 98t-83.5 330l37 242q25 164 -23 226t-163 62h-60z" />
<glyph unicode="|" horiz-adv-x="696" d="M221 -389v2148h254v-2148h-254z" />
<glyph unicode="}" horiz-adv-x="911" d="M20 -201h101q66 0 105.5 6.5t83.5 29t58.5 74.5t2.5 136l-37 229q-49 326 192 408q-246 82 -192 410l37 223q12 49 5 87t-14.5 64.5t-30 45t-42 28.5t-52 15.5t-57 7.5t-59.5 2h-101v190h183q238 0 356.5 -100.5t81.5 -331.5l-37 -236q-27 -164 22.5 -226t164.5 -62h59 v-232h-59q-115 0 -163 -62.5t-24 -225.5l37 -242q35 -231 -83 -329.5t-355 -98.5h-183v190z" />
<glyph unicode="~" horiz-adv-x="1173" d="M82 649q10 170 78.5 278.5t208.5 110.5q102 2 221 -80q63 -45 87.5 -61t53.5 -28.5t53 -12.5q45 2 69 35t32 117h207q-10 -170 -79 -278.5t-208 -111.5q-102 -2 -221 80q-63 45 -88 61.5t-53.5 29t-53.5 12.5q-45 -2 -68.5 -35t-31.5 -117h-207z" />
<glyph unicode="&#xa1;" horiz-adv-x="581" d="M131 -389l47 1022h225l48 -1022h-320zM135 825v322h311v-322h-311z" />
<glyph unicode="&#xa2;" horiz-adv-x="1179" d="M145 551v209q0 115 33 213q41 115 135.5 185.5t223.5 86.5v191h122v-191q133 -12 230.5 -82.5t140.5 -189.5q25 -76 31 -158h-266q-2 39 -17 72q-35 86 -112 110v-684q78 25 112 111q12 27 15 55h266q-6 -80 -29 -141q-41 -117 -137 -188.5t-227 -86.5v-206h-123v206 q-133 14 -227.5 85t-137.5 190q-33 98 -33 213zM410 565q0 -92 20 -141q31 -86 113 -111v684q-82 -25 -113 -110q-20 -49 -20 -142v-180z" />
<glyph unicode="&#xa3;" horiz-adv-x="1179" d="M45 698v144h166v266q0 209 119 328.5t309 119.5q186 0 307 -112.5t129 -317.5h-258q-10 100 -52 145.5t-122 45.5t-126 -49t-46 -140v-286h328v-144h-328v-219q0 -184 -92 -235v-4h319q170 0 181 198h247q-4 -246 -110.5 -342t-298.5 -96h-633v240q68 0 97.5 46t29.5 163 v249h-166z" />
<glyph unicode="&#xa5;" horiz-adv-x="1179" d="M-6 1536h317l279 -510l278 510h318l-398 -670h328v-164h-385v-176h385v-164h-385v-362h-282v362h-386v164h386v176h-386v164h330z" />
<glyph unicode="&#xa6;" horiz-adv-x="696" d="M221 -389v919h254v-919h-254zM221 840v919h254v-919h-254z" />
<glyph unicode="&#xa7;" horiz-adv-x="1099" d="M98 139h252q37 -164 203 -164q72 0 116 39t46 99q2 63 -48.5 104t-154.5 70l-53 14q-111 29 -186.5 75t-111.5 97t-49.5 95t-13.5 89q0 88 51.5 160t147.5 115q-158 98 -158 262q0 154 110.5 248t285 94t286 -89t129.5 -263h-250q-27 131 -172 131q-66 0 -104.5 -33 t-38.5 -82q0 -104 195 -162l59 -18q362 -113 362 -369q0 -82 -45 -156.5t-127 -117.5q139 -90 140 -254q0 -168 -117 -267.5t-295 -99.5q-193 0 -313.5 98.5t-145.5 284.5zM350 682q-2 -51 39 -91t123 -65l119 -34q57 8 92 47t37 92q0 104 -162 160l-96 30 q-61 -8 -105.5 -48t-46.5 -91z" />
<glyph unicode="&#xa8;" horiz-adv-x="1097" d="M197 1380v269h256v-269h-256zM645 1380v269h256v-269h-256z" />
<glyph unicode="&#xa9;" horiz-adv-x="1748" d="M119 768q0 334 210 561t545.5 227t545.5 -227t210 -561t-210 -561t-545.5 -227t-545.5 227t-210 561zM223 768q0 -293 179.5 -490.5t472 -197.5t472 197.5t179.5 490.5t-179.5 490.5t-472 197.5t-472 -197.5t-179.5 -490.5zM539 637v266q0 98 24 158q39 94 125 148.5 t186 54.5h13q100 0 188 -55.5t123 -147.5q25 -66 27 -172h-195q-4 84 -16 112q-29 74 -127 74h-13q-94 0 -126 -74q-16 -35 -17 -98v-266q0 -63 17 -96q33 -76 126 -76h13q96 0 127 76q16 39 16 121h195q-2 -111 -27 -179q-35 -96 -122 -151.5t-189 -55.5h-13 q-100 0 -186 54.5t-125 148.5q-24 58 -24 158z" />
<glyph unicode="&#xaa;" horiz-adv-x="714" d="M78 1073q0 152 139 199q55 16 127 16h105v19q0 113 -95 112q-78 0 -92 -69h-166q16 100 88 153t183 53q184 0 237 -147q16 -43 17 -127v-426h-105l-18 107h-2q-66 -119 -193 -119q-98 0 -161.5 59t-63.5 170zM250 1079q0 -90 86 -90q49 0 81 40t32 104v28h-93 q-39 0 -55 -8q-51 -19 -51 -74z" />
<glyph unicode="&#xab;" horiz-adv-x="1155" d="M53 627l522 542v-297l-251 -245l251 -246v-297zM535 627l522 542v-297l-252 -245l252 -246v-297z" />
<glyph unicode="&#xac;" d="M82 0v1536h1024v-1536h-1024zM184 190l351 576l-351 575v-1151zM246 1434l348 -572l348 572h-696zM248 102h690l-344 566zM653 766l351 -576v1151z" />
<glyph unicode="&#xad;" horiz-adv-x="905" d="M78 678v242h749v-242h-749z" />
<glyph unicode="&#xae;" horiz-adv-x="995" d="M94 1194q0 174 114 294t290 120t289.5 -120t113.5 -294t-113.5 -294t-289.5 -120t-290 120t-114 294zM156 1193.5q0 -149.5 96 -252.5t245.5 -103t246 103t96.5 252.5t-96.5 253t-246 103.5t-245.5 -103.5t-96 -253zM342 961v477h170q76 0 125 -38t49 -106 q0 -102 -90 -137l106 -196h-110l-90 180h-62v-180h-98zM438 1231h82q27 0 45.5 16.5t18.5 46.5q0 51 -72 52h-74v-115z" />
<glyph unicode="&#xaf;" horiz-adv-x="1097" d="M209 1382v195h678v-195h-678z" />
<glyph unicode="&#xb0;" horiz-adv-x="659" d="M78 1306.5q0 104.5 73.5 178.5t178 74t178.5 -74t74 -178.5t-74 -178t-178.5 -73.5t-178 73.5t-73.5 178zM207 1306.5q0 -53.5 36 -91t87 -37.5t87 37.5t36 91t-36 91.5t-87 38t-87 -38t-36 -91.5z" />
<glyph unicode="&#xb1;" horiz-adv-x="1179" d="M51 -20v241h1077v-241h-1077zM51 760v241h416v433h246v-433h415v-241h-415v-432h-246v432h-416z" />
<glyph unicode="&#xb2;" d="M82 0v1536h1024v-1536h-1024zM184 190l351 576l-351 575v-1151zM246 1434l348 -572l348 572h-696zM248 102h690l-344 566zM653 766l351 -576v1151z" />
<glyph unicode="&#xb3;" d="M82 0v1536h1024v-1536h-1024zM184 190l351 576l-351 575v-1151zM246 1434l348 -572l348 572h-696zM248 102h690l-344 566zM653 766l351 -576v1151z" />
<glyph unicode="&#xb4;" horiz-adv-x="1097" d="M336 1346l239 383h318l2 -25l-360 -358h-199z" />
<glyph unicode="&#xb5;" horiz-adv-x="1224" d="M145 -500v1647h289v-662q0 -78 15 -118q35 -113 151 -113q53 0 100.5 38t71.5 93q18 43 19 115v647h288v-1147h-190l-25 145h-2q-115 -166 -293 -165q-86 0 -163 43q6 -55 6 -140v-383h-267z" />
<glyph unicode="&#x3bc;" horiz-adv-x="1224" d="M145 -500v1647h289v-662q0 -78 15 -118q35 -113 151 -113q53 0 100.5 38t71.5 93q18 43 19 115v647h288v-1147h-190l-25 145h-2q-115 -166 -293 -165q-86 0 -163 43q6 -55 6 -140v-383h-267z" />
<glyph unicode="&#xb6;" horiz-adv-x="1298" d="M109 1104q0 180 125.5 306t304.5 126h596v-1894h-193v1724h-176v-1724h-197v1036h-30q-178 0 -304 125t-126 301z" />
<glyph unicode="&#xb7;" horiz-adv-x="542" d="M100 635v354h342v-354h-342z" />
<glyph unicode="&#xb8;" horiz-adv-x="1097" d="M299 -291h158q20 -66 88 -65q31 0 49 17t18 44q0 59 -98 88l-49 14q-45 12 -57.5 31t2.5 66l63 162l135 -23l-33 -131q207 -61 207 -207q0 -94 -64.5 -149.5t-164.5 -55.5q-104 0 -175 57.5t-79 151.5z" />
<glyph unicode="&#xb9;" d="M82 0v1536h1024v-1536h-1024zM184 190l351 576l-351 575v-1151zM246 1434l348 -572l348 572h-696zM248 102h690l-344 566zM653 766l351 -576v1151z" />
<glyph unicode="&#xba;" horiz-adv-x="712" d="M82 1137v127q0 68 18 127q29 78 96.5 121.5t160 43.5t160 -44t95.5 -121q18 -59 19 -127v-127q0 -68 -19 -127q-29 -78 -96 -122t-159.5 -44t-160 44t-96.5 122q-18 59 -18 127zM254 1151q0 -49 12 -78q23 -66 90.5 -65.5t89.5 65.5q12 29 13 78v98q0 49 -13 78 q-23 66 -90 66t-90 -66q-12 -29 -12 -78v-98z" />
<glyph unicode="&#xbb;" horiz-adv-x="1155" d="M98 84v297l252 246l-252 245v297l523 -542zM580 84v297l251 246l-251 245v297l522 -542z" />
<glyph unicode="&#xbc;" d="M82 0v1536h1024v-1536h-1024zM184 190l351 576l-351 575v-1151zM246 1434l348 -572l348 572h-696zM248 102h690l-344 566zM653 766l351 -576v1151z" />
<glyph unicode="&#xbd;" d="M82 0v1536h1024v-1536h-1024zM184 190l351 576l-351 575v-1151zM246 1434l348 -572l348 572h-696zM248 102h690l-344 566zM653 766l351 -576v1151z" />
<glyph unicode="&#xbe;" d="M82 0v1536h1024v-1536h-1024zM184 190l351 576l-351 575v-1151zM246 1434l348 -572l348 572h-696zM248 102h690l-344 566zM653 766l351 -576v1151z" />
<glyph unicode="&#xbf;" horiz-adv-x="1042" d="M74 -41q0 100 43 173t100 117t112.5 89t83 117.5t5.5 175.5h266q29 -98 16.5 -178t-48.5 -133.5t-84 -101.5t-93 -83t-75.5 -78t-30.5 -88q0 -57 45 -91t116 -34q76 0 122 52.5t46 126.5v47h275v-47q0 -186 -128 -309.5t-315 -123.5q-215 0 -335.5 106.5t-120.5 262.5z M385 825v322h311v-322h-311z" />
<glyph unicode="&#xc0;" horiz-adv-x="1253" d="M20 0l431 1536h352l430 -1536h-305l-103 395h-397l-102 -395h-306zM240 2011l2 25h317l240 -383h-199zM502 674h250l-123 485h-8z" />
<glyph unicode="&#xc1;" horiz-adv-x="1253" d="M20 0l431 1536h352l430 -1536h-305l-103 395h-397l-102 -395h-306zM455 1653l239 383h318l2 -25l-361 -358h-198zM502 674h250l-123 485h-8z" />
<glyph unicode="&#xc2;" horiz-adv-x="1253" d="M20 0l431 1536h352l430 -1536h-305l-103 395h-397l-102 -395h-306zM186 1655l342 420h197l342 -420h-238l-202 231l-203 -231h-238zM502 674h250l-123 485h-8z" />
<glyph unicode="&#xc3;" horiz-adv-x="1253" d="M20 0l431 1536h352l430 -1536h-305l-103 395h-397l-102 -395h-306zM207 1683q8 152 77.5 237t178.5 85q92 0 186 -70q16 -12 39 -29.5t31 -23.5t22.5 -13t26.5 -9t29 -2q23 0 44 25.5t27 84.5h181q-8 -152 -78 -236.5t-178 -84.5q-92 0 -187 69q-16 12 -38.5 29.5t-31 24 t-22.5 13.5t-26.5 9t-28.5 2q-23 0 -44.5 -25.5t-27.5 -85.5h-180zM502 674h250l-123 485h-8z" />
<glyph unicode="&#xc4;" horiz-adv-x="1253" d="M20 0l431 1536h352l430 -1536h-305l-103 395h-397l-102 -395h-306zM274 1688v268h256v-268h-256zM502 674h250l-123 485h-8zM723 1688v268h256v-268h-256z" />
<glyph unicode="&#xc5;" horiz-adv-x="1253" d="M20 0l431 1536h352l430 -1536h-305l-103 395h-397l-102 -395h-306zM375 1878.5q0 106.5 73.5 180t178 73.5t178.5 -73.5t74 -180t-74 -180.5t-178.5 -74t-178 74t-73.5 180.5zM502 674h250l-123 485h-8zM530 1878q0 -41 27 -71.5t70 -30.5t69.5 30.5t26.5 71.5 t-26.5 71.5t-69.5 30.5t-70 -30.5t-27 -71.5z" />
<glyph unicode="&#xc6;" horiz-adv-x="1861" d="M-20 0l677 1536h1127v-276h-557v-334h446v-277h-446v-373h557v-276h-856v449h-439l-188 -449h-321zM608 727h320v545h-88z" />
<glyph unicode="&#xc7;" horiz-adv-x="1255" d="M129 516v504q0 143 39 235q57 141 187 221t284 80h16q156 0 287 -79.5t186 -221.5q39 -94 41 -260h-303q-4 119 -24 164q-25 55 -75 83t-108 28h-24q-129 0 -182 -111q-25 -49 -25 -139v-500q0 -94 25 -145q51 -109 182 -109h24q133 0 183 109q23 47 22 178h303 q-2 -178 -39 -272q-55 -143 -184 -222t-285 -79h-4l-16 -68q207 -61 207 -207q0 -94 -64.5 -149.5t-165.5 -55.5q-104 0 -174.5 57.5t-79.5 151.5h158q20 -66 88 -65q31 0 49.5 17t18.5 44q0 59 -98 88l-50 14q-45 12 -57 31t2 66l35 92q-115 27 -205 100.5t-135 184.5 q-39 92 -39 235z" />
<glyph unicode="&#xc8;" horiz-adv-x="1157" d="M152 0v1536h927v-276h-628v-334h518v-277h-518v-373h628v-276h-927zM262 2011l2 25h318l239 -383h-198z" />
<glyph unicode="&#xc9;" horiz-adv-x="1157" d="M152 0v1536h927v-276h-628v-334h518v-277h-518v-373h628v-276h-927zM408 1653l239 383h318l2 -25l-361 -358h-198z" />
<glyph unicode="&#xca;" horiz-adv-x="1157" d="M152 0v1536h927v-276h-628v-334h518v-277h-518v-373h628v-276h-927zM174 1655l342 420h197l342 -420h-238l-203 231l-202 -231h-238z" />
<glyph unicode="&#xcb;" horiz-adv-x="1157" d="M152 0v1536h927v-276h-628v-334h518v-277h-518v-373h628v-276h-927zM254 1688v268h256v-268h-256zM702 1688v268h256v-268h-256z" />
<glyph unicode="&#xcc;" horiz-adv-x="602" d="M-106 2011l2 25h317l240 -383h-199zM152 0v1536h299v-1536h-299z" />
<glyph unicode="&#xcd;" horiz-adv-x="602" d="M152 0v1536h299v-1536h-299zM158 1653l239 383h318l2 -25l-361 -358h-198z" />
<glyph unicode="&#xce;" horiz-adv-x="602" d="M-139 1655l342 420h196l342 -420h-237l-203 231l-203 -231h-237zM152 0v1536h299v-1536h-299z" />
<glyph unicode="&#xcf;" horiz-adv-x="602" d="M-51 1688v268h256v-268h-256zM152 0v1536h299v-1536h-299zM397 1688v268h256v-268h-256z" />
<glyph unicode="&#xd0;" horiz-adv-x="1363" d="M25 700v218h196v618h486q371 0 491 -301q39 -100 39 -236v-462q0 -135 -39 -236q-121 -301 -491 -301h-486v700h-196zM518 287h197q150 0 203 110q23 47 22 144v452q0 96 -22 144q-53 111 -203 110h-197v-329h248v-218h-248v-413z" />
<glyph unicode="&#xd1;" horiz-adv-x="1363" d="M152 0v1536h313l469 -981h2q-2 68 -2 119v862h278v-1536h-315l-467 981h-2q2 -68 2 -119v-862h-278zM256 1683q8 152 77.5 237t178.5 85q92 0 186 -70q16 -12 39 -29.5t31 -23.5t22.5 -13t26.5 -9t29 -2q23 0 44 25.5t28 84.5h180q-8 -152 -78 -236.5t-178 -84.5 q-92 0 -187 69q-16 12 -38.5 29.5t-30.5 24t-22.5 13.5t-27 9t-28.5 2q-23 0 -44.5 -25.5t-27.5 -85.5h-180z" />
<glyph unicode="&#xd2;" horiz-adv-x="1292" d="M129 516v504q0 139 37 235q57 143 186 222t283 79h22q152 0 281 -79.5t186 -221.5q39 -92 39 -235v-504q0 -143 -39 -235q-57 -141 -186 -221t-281 -80h-22q-154 0 -283 78.5t-186 222.5q-37 96 -37 235zM311 2011l2 25h318l239 -383h-198zM428 520q0 -104 23 -147 q51 -109 184 -109h22q133 0 185 109q23 47 22 147v496q0 100 -22 147q-51 109 -185 109h-22q-133 0 -184 -109q-23 -43 -23 -147v-496z" />
<glyph unicode="&#xd3;" horiz-adv-x="1292" d="M129 516v504q0 139 37 235q57 143 186 222t283 79h22q152 0 281 -79.5t186 -221.5q39 -92 39 -235v-504q0 -143 -39 -235q-57 -141 -186 -221t-281 -80h-22q-154 0 -283 78.5t-186 222.5q-37 96 -37 235zM418 1653l239 383h318l2 -25l-361 -358h-198zM428 520 q0 -104 23 -147q51 -109 184 -109h22q133 0 185 109q23 47 22 147v496q0 100 -22 147q-51 109 -185 109h-22q-133 0 -184 -109q-23 -43 -23 -147v-496z" />
<glyph unicode="&#xd4;" horiz-adv-x="1292" d="M129 516v504q0 139 37 235q57 143 186 222t283 79h22q152 0 281 -79.5t186 -221.5q39 -92 39 -235v-504q0 -143 -39 -235q-57 -141 -186 -221t-281 -80h-22q-154 0 -283 78.5t-186 222.5q-37 96 -37 235zM205 1634l342 420h196l342 -420h-237l-203 232l-203 -232h-237z M428 520q0 -104 23 -147q51 -109 184 -109h22q133 0 185 109q23 47 22 147v496q0 100 -22 147q-51 109 -185 109h-22q-133 0 -184 -109q-23 -43 -23 -147v-496z" />
<glyph unicode="&#xd5;" horiz-adv-x="1292" d="M129 516v504q0 139 37 235q57 143 186 222t283 79h22q152 0 281 -79.5t186 -221.5q39 -92 39 -235v-504q0 -143 -39 -235q-57 -141 -186 -221t-281 -80h-22q-154 0 -283 78.5t-186 222.5q-37 96 -37 235zM229 1683q8 152 78 237t178 85q92 0 187 -70q16 -12 38.5 -29.5 t31 -23.5t22.5 -13t26.5 -9t28.5 -2q23 0 44.5 25.5t27.5 84.5h180q-8 -152 -77.5 -236.5t-178.5 -84.5q-92 0 -186 69q-16 12 -39 29.5t-31 24t-22.5 13.5t-26.5 9t-29 2q-23 0 -44 -25.5t-27 -85.5h-181zM428 520q0 -104 23 -147q51 -109 184 -109h22q133 0 185 109 q23 47 22 147v496q0 100 -22 147q-51 109 -185 109h-22q-133 0 -184 -109q-23 -43 -23 -147v-496z" />
<glyph unicode="&#xd6;" horiz-adv-x="1292" d="M129 516v504q0 139 37 235q57 143 186 222t283 79h22q152 0 281 -79.5t186 -221.5q39 -92 39 -235v-504q0 -143 -39 -235q-57 -141 -186 -221t-281 -80h-22q-154 0 -283 78.5t-186 222.5q-37 96 -37 235zM293 1688v268h256v-268h-256zM428 520q0 -104 23 -147 q51 -109 184 -109h22q133 0 185 109q23 47 22 147v496q0 100 -22 147q-51 109 -185 109h-22q-133 0 -184 -109q-23 -43 -23 -147v-496zM741 1688v268h256v-268h-256z" />
<glyph unicode="&#xd7;" horiz-adv-x="1179" d="M70 256l356 356l-356 357l166 166l356 -357l356 357l164 -166l-354 -357l354 -356l-164 -166l-356 356l-356 -356z" />
<glyph unicode="&#xd8;" horiz-adv-x="1292" d="M129 516v504q0 139 37 235q57 143 186 222t283 79h22q127 0 242 -57l51 109h176l-96 -207q61 -63 94 -146q39 -92 39 -235v-504q0 -143 -39 -235q-57 -141 -186 -221t-281 -80h-22q-131 0 -244 55l-49 -107h-176l94 205q-61 66 -94 148q-37 96 -37 235zM428 489l348 748 q-49 35 -119 35h-22q-133 0 -184 -109q-23 -43 -23 -147v-527zM514 297q51 -33 121 -33h22q133 0 185 109q23 47 22 147v524z" />
<glyph unicode="&#xd9;" horiz-adv-x="1320" d="M143 516v1020h299v-1016q0 -104 23 -147q51 -109 184 -109h23q133 0 184 109q23 47 23 147v1016h299v-1020q0 -143 -39 -235q-57 -141 -186.5 -221t-280.5 -80h-23q-154 0 -282.5 78.5t-186.5 222.5q-37 96 -37 235zM285 2011l2 25h317l240 -383h-199z" />
<glyph unicode="&#xda;" horiz-adv-x="1320" d="M143 516v1020h299v-1016q0 -104 23 -147q51 -109 184 -109h23q133 0 184 109q23 47 23 147v1016h299v-1020q0 -143 -39 -235q-57 -141 -186.5 -221t-280.5 -80h-23q-154 0 -282.5 78.5t-186.5 222.5q-37 96 -37 235zM487 1653l240 383h317l3 -25l-361 -358h-199z" />
<glyph unicode="&#xdb;" horiz-adv-x="1320" d="M143 516v1020h299v-1016q0 -104 23 -147q51 -109 184 -109h23q133 0 184 109q23 47 23 147v1016h299v-1020q0 -143 -39 -235q-57 -141 -186.5 -221t-280.5 -80h-23q-154 0 -282.5 78.5t-186.5 222.5q-37 96 -37 235zM219 1655l342 420h197l342 -420h-238l-203 231 l-202 -231h-238z" />
<glyph unicode="&#xdc;" horiz-adv-x="1320" d="M143 516v1020h299v-1016q0 -104 23 -147q51 -109 184 -109h23q133 0 184 109q23 47 23 147v1016h299v-1020q0 -143 -39 -235q-57 -141 -186.5 -221t-280.5 -80h-23q-154 0 -282.5 78.5t-186.5 222.5q-37 96 -37 235zM307 1688v268h256v-268h-256zM756 1688v268h256v-268 h-256z" />
<glyph unicode="&#xdd;" horiz-adv-x="1265" d="M2 1536h338l289 -565h4l293 565h338l-482 -862v-674h-299v672zM481 1653l240 383h317l2 -25l-360 -358h-199z" />
<glyph unicode="&#xde;" horiz-adv-x="1284" d="M152 0v1536h299v-272h198q147 0 242 -35q137 -51 218 -172t81 -283q0 -160 -81 -278.5t-218 -171.5q-80 -33 -232 -33h-208v-291h-299zM451 575h196q94 0 144 27q100 53 100 172q0 123 -100 176q-45 27 -144 27h-196v-402z" />
<glyph unicode="&#xdf;" horiz-adv-x="1277" d="M145 0v1055q0 213 135.5 357t376.5 144q203 0 332 -109.5t129 -289.5q0 -225 -205 -340q109 -33 188 -138.5t79 -250.5q0 -217 -122 -332.5t-310 -115.5q-129 0 -230 22v254q76 -25 168 -25q94 0 153.5 56.5t59.5 158.5q0 113 -82 174.5t-203 61.5h-51v240h72 q84 0 146.5 56t62.5 146q0 76 -55.5 122t-145.5 46q-109 0 -163 -63.5t-54 -165.5v-1063h-281z" />
<glyph unicode="&#xe0;" horiz-adv-x="1142" d="M98 360q0 123 61.5 208t172.5 124q86 29 211 29h172v29q0 190 -156 190q-129 0 -153 -119h-277q27 170 145.5 258t305.5 88q307 0 395 -245q29 -78 29 -211v-711h-177l-30 176h-2q-106 -197 -322 -196q-164 0 -269.5 99t-105.5 281zM231 1642l2 25h318l240 -383h-199z M385 371q0 -147 143 -148q82 0 135.5 65.5t53.5 172.5v47h-154q-61 0 -92 -12q-86 -33 -86 -125z" />
<glyph unicode="&#xe1;" horiz-adv-x="1142" d="M98 360q0 123 61.5 208t172.5 124q86 29 211 29h172v29q0 190 -156 190q-129 0 -153 -119h-277q27 170 145.5 258t305.5 88q307 0 395 -245q29 -78 29 -211v-711h-177l-30 176h-2q-106 -197 -322 -196q-164 0 -269.5 99t-105.5 281zM369 1284l239 383h318l2 -25 l-361 -358h-198zM385 371q0 -147 143 -148q82 0 135.5 65.5t53.5 172.5v47h-154q-61 0 -92 -12q-86 -33 -86 -125z" />
<glyph unicode="&#xe2;" horiz-adv-x="1142" d="M98 360q0 123 61.5 208t172.5 124q86 29 211 29h172v29q0 190 -156 190q-129 0 -153 -119h-277q27 170 145.5 258t305.5 88q307 0 395 -245q29 -78 29 -211v-711h-177l-30 176h-2q-106 -197 -322 -196q-164 0 -269.5 99t-105.5 281zM133 1266l342 420h197l342 -420h-238 l-203 231l-202 -231h-238zM385 371q0 -147 143 -148q82 0 135.5 65.5t53.5 172.5v47h-154q-61 0 -92 -12q-86 -33 -86 -125z" />
<glyph unicode="&#xe3;" horiz-adv-x="1142" d="M98 360q0 123 61.5 208t172.5 124q86 29 211 29h172v29q0 190 -156 190q-129 0 -153 -119h-277q27 170 145.5 258t305.5 88q307 0 395 -245q29 -78 29 -211v-711h-177l-30 176h-2q-106 -197 -322 -196q-164 0 -269.5 99t-105.5 281zM156 1315q8 152 77.5 236.5 t178.5 84.5q92 0 186 -69q16 -12 38.5 -29.5t31 -24t23 -13.5t26.5 -9t28 -2q23 0 44.5 25.5t27.5 84.5h180q-8 -152 -77.5 -236.5t-178.5 -84.5q-92 0 -186 70q-16 12 -38.5 29.5t-31 23.5t-22.5 13t-26.5 9t-28.5 2q-23 0 -44.5 -25.5t-27.5 -84.5h-180zM385 371 q0 -147 143 -148q82 0 135.5 65.5t53.5 172.5v47h-154q-61 0 -92 -12q-86 -33 -86 -125z" />
<glyph unicode="&#xe4;" horiz-adv-x="1142" d="M98 360q0 123 61.5 208t172.5 124q86 29 211 29h172v29q0 190 -156 190q-129 0 -153 -119h-277q27 170 145.5 258t305.5 88q307 0 395 -245q29 -78 29 -211v-711h-177l-30 176h-2q-106 -197 -322 -196q-164 0 -269.5 99t-105.5 281zM215 1319v268h256v-268h-256zM385 371 q0 -147 143 -148q82 0 135.5 65.5t53.5 172.5v47h-154q-61 0 -92 -12q-86 -33 -86 -125zM664 1319v268h256v-268h-256z" />
<glyph unicode="&#xe5;" horiz-adv-x="1142" d="M98 360q0 123 61.5 208t172.5 124q86 29 211 29h172v29q0 190 -156 190q-129 0 -153 -119h-277q27 170 145.5 258t305.5 88q307 0 395 -245q29 -78 29 -211v-711h-177l-30 176h-2q-106 -197 -322 -196q-164 0 -269.5 99t-105.5 281zM328 1509.5q0 106.5 73.5 180 t178 73.5t178 -73.5t73.5 -180t-73.5 -180.5t-178 -74t-178 74t-73.5 180.5zM385 371q0 -147 143 -148q82 0 135.5 65.5t53.5 172.5v47h-154q-61 0 -92 -12q-86 -33 -86 -125zM483 1509q0 -41 27 -71.5t70 -30.5t69.5 30.5t26.5 71.5t-26.5 72t-69.5 31t-70 -31t-27 -72z " />
<glyph unicode="&#xe6;" horiz-adv-x="1734" d="M98 360q0 123 61.5 208t172.5 124q86 29 211 29h172v29q0 190 -156 190q-129 0 -153 -119h-277q27 168 142.5 257t287.5 89q223 0 311 -166q113 166 332 166q195 0 311.5 -147.5t116.5 -374.5v-137h-624v-41q0 -82 18 -131q39 -109 152 -109q115 0 155 125h289 q-6 -55 -23 -96q-45 -131 -153.5 -203.5t-247.5 -72.5q-264 0 -365 219q-53 -102 -147 -160.5t-211 -58.5q-164 0 -269.5 99t-105.5 281zM385 371q0 -147 143 -148q82 0 135.5 65.5t53.5 172.5v47h-154q-61 0 -92 -12q-86 -33 -86 -125zM1006 721h340q-2 55 -19 96 q-39 109 -151.5 109t-151.5 -109q-16 -41 -18 -96z" />
<glyph unicode="&#xe7;" horiz-adv-x="1107" d="M109 469v209q0 115 32 213q47 131 160 203.5t266.5 72.5t266 -72.5t159.5 -203.5q25 -76 31 -158h-293q-2 29 -12 53q-39 109 -151.5 109t-151.5 -109q-18 -49 -19 -131v-163q0 -82 19 -132q39 -109 151.5 -108.5t151.5 108.5q2 6 6 19.5t4 17.5h293q-6 -80 -29 -141 q-45 -129 -154.5 -200.5t-256.5 -75.5l-17 -68q207 -61 207 -207q0 -94 -64.5 -149.5t-164.5 -55.5q-104 0 -175 57.5t-79 151.5h157q20 -66 89 -65q31 0 49 17t18 44q0 59 -98 88l-49 14q-45 12 -57.5 31t1.5 66l35 92q-217 51 -293 260q-32 98 -32 213z" />
<glyph unicode="&#xe8;" horiz-adv-x="1132" d="M109 469v209q0 115 32 213q47 131 160 203.5t266.5 72.5t266 -72.5t159.5 -203.5q33 -98 33 -213v-182h-629v-29q0 -82 19 -131q39 -109 151 -109q115 0 156 125h293q-6 -55 -23 -96q-45 -131 -158.5 -203.5t-267 -72.5t-266.5 72.5t-160 203.5q-32 98 -32 213zM221 1642 l2 25h318l239 -383h-198zM397 713h340q-2 63 -18 104q-39 109 -151.5 109t-151.5 -109q-15 -38 -19 -104z" />
<glyph unicode="&#xe9;" horiz-adv-x="1132" d="M109 469v209q0 115 32 213q47 131 160 203.5t266.5 72.5t266 -72.5t159.5 -203.5q33 -98 33 -213v-182h-629v-29q0 -82 19 -131q39 -109 151 -109q115 0 156 125h293q-6 -55 -23 -96q-45 -131 -158.5 -203.5t-267 -72.5t-266.5 72.5t-160 203.5q-32 98 -32 213zM338 1284 l240 383h317l2 -25l-360 -358h-199zM397 713h340q-2 63 -18 104q-39 109 -151.5 109t-151.5 -109q-15 -38 -19 -104z" />
<glyph unicode="&#xea;" horiz-adv-x="1132" d="M109 469v209q0 115 32 213q47 131 160 203.5t266.5 72.5t266 -72.5t159.5 -203.5q33 -98 33 -213v-182h-629v-29q0 -82 19 -131q39 -109 151 -109q115 0 156 125h293q-6 -55 -23 -96q-45 -131 -158.5 -203.5t-267 -72.5t-266.5 72.5t-160 203.5q-32 98 -32 213zM119 1266 l342 420h196l342 -420h-237l-203 231l-203 -231h-237zM397 713h340q-2 63 -18 104q-39 109 -151.5 109t-151.5 -109q-15 -38 -19 -104z" />
<glyph unicode="&#xeb;" horiz-adv-x="1112" d="M113 469v209q0 115 32 213q47 131 160 203.5t266.5 72.5t266 -72.5t159.5 -203.5q33 -98 33 -213v-182h-629v-29q0 -82 19 -131q39 -109 151 -109q115 0 156 125h293q-6 -55 -23 -96q-45 -131 -158.5 -203.5t-267 -72.5t-266 72.5t-160.5 203.5q-32 98 -32 213zM211 1319 v268h256v-268h-256zM401 713h340q-2 63 -18 104q-39 109 -151.5 109t-151.5 -109q-15 -38 -19 -104zM659 1319v268h256v-268h-256z" />
<glyph unicode="&#xec;" horiz-adv-x="550" d="M-141 1642l2 25h317l240 -383h-199zM131 0v1147h289v-1147h-289z" />
<glyph unicode="&#xed;" horiz-adv-x="550" d="M131 0v1147h289v-1147h-289zM133 1284l240 383h317l2 -25l-360 -358h-199z" />
<glyph unicode="&#xee;" horiz-adv-x="550" d="M-166 1286l342 420h197l342 -420h-238l-203 232l-202 -232h-238zM131 0v1147h289v-1147h-289z" />
<glyph unicode="&#xef;" horiz-adv-x="550" d="M-78 1319v268h256v-268h-256zM131 0v1147h289v-1147h-289zM371 1319v268h256v-268h-256z" />
<glyph unicode="&#xf0;" horiz-adv-x="1128" d="M104 469v92q0 115 33 213q47 129 148.5 201t226.5 72q98 0 166 -50q-20 100 -107 226l-239 -90l-58 163l195 74q-66 96 -113 148l236 106q66 -70 129 -158l225 86l60 -161l-187 -72q90 -166 131 -281q72 -203 72 -415v-154q0 -115 -33 -213q-47 -131 -159.5 -203.5 t-266 -72.5t-266.5 72.5t-160 203.5q-33 98 -33 213zM393 492q0 -82 19 -132q39 -109 151.5 -108.5t151.5 108.5q18 49 18 132v47q0 82 -18 131q-39 109 -151.5 108.5t-151.5 -108.5q-18 -49 -19 -131v-47z" />
<glyph unicode="&#xf1;" horiz-adv-x="1218" d="M145 0v1147h191l24 -146h2q104 166 320 166q143 0 241.5 -76.5t135.5 -216.5q20 -70 20 -186v-688h-288v662q0 78 -15 118q-35 113 -151 113q-53 0 -100.5 -38t-71.5 -93q-18 -43 -19 -115v-647h-289zM180 1319q8 152 78 236.5t178 84.5q92 0 187 -69q16 -12 38.5 -29.5 t30.5 -24t22.5 -13.5t27 -9t28.5 -2q23 0 44.5 25.5t27.5 85.5h180q-8 -152 -78 -237t-178 -85q-92 0 -186 70q-16 12 -39 29.5t-31 23.5t-22.5 13t-26.5 9.5t-29 2.5q-23 0 -44 -26t-28 -85h-180z" />
<glyph unicode="&#xf2;" horiz-adv-x="1134" d="M109 469v209q0 115 32 213q47 131 160 203.5t266.5 72.5t266 -72.5t159.5 -203.5q33 -98 33 -213v-209q0 -115 -33 -213q-47 -131 -159.5 -203.5t-266 -72.5t-266.5 72.5t-160 203.5q-32 98 -32 213zM229 1642l2 25h318l239 -383h-198zM397 492q0 -82 19 -132 q39 -109 151.5 -108.5t151.5 108.5q18 49 18 132v163q0 82 -18 131q-39 109 -151.5 109t-151.5 -109q-18 -49 -19 -131v-163z" />
<glyph unicode="&#xf3;" horiz-adv-x="1134" d="M109 469v209q0 115 32 213q47 131 160 203.5t266.5 72.5t266 -72.5t159.5 -203.5q33 -98 33 -213v-209q0 -115 -33 -213q-47 -131 -159.5 -203.5t-266 -72.5t-266.5 72.5t-160 203.5q-32 98 -32 213zM350 1284l240 383h317l2 -25l-360 -358h-199zM397 492q0 -82 19 -132 q39 -109 151.5 -108.5t151.5 108.5q18 49 18 132v163q0 82 -18 131q-39 109 -151.5 109t-151.5 -109q-18 -49 -19 -131v-163z" />
<glyph unicode="&#xf4;" horiz-adv-x="1134" d="M109 469v209q0 115 32 213q47 131 160 203.5t266.5 72.5t266 -72.5t159.5 -203.5q33 -98 33 -213v-209q0 -115 -33 -213q-47 -131 -159.5 -203.5t-266 -72.5t-266.5 72.5t-160 203.5q-32 98 -32 213zM127 1266l342 420h197l342 -420h-238l-203 231l-202 -231h-238z M397 492q0 -82 19 -132q39 -109 151.5 -108.5t151.5 108.5q18 49 18 132v163q0 82 -18 131q-39 109 -151.5 109t-151.5 -109q-18 -49 -19 -131v-163z" />
<glyph unicode="&#xf5;" horiz-adv-x="1134" d="M109 469v209q0 115 32 213q47 131 160 203.5t266.5 72.5t266 -72.5t159.5 -203.5q33 -98 33 -213v-209q0 -115 -33 -213q-47 -131 -159.5 -203.5t-266 -72.5t-266.5 72.5t-160 203.5q-32 98 -32 213zM147 1315q8 152 78 236.5t178 84.5q92 0 187 -69q16 -12 38.5 -29.5 t31 -24t22.5 -13.5t26.5 -9t28.5 -2q23 0 44.5 25.5t27.5 84.5h180q-8 -152 -77.5 -236.5t-178.5 -84.5q-92 0 -186 70q-16 12 -39 29.5t-31 23.5t-22.5 13t-26.5 9t-29 2q-23 0 -44 -25.5t-27 -84.5h-181zM397 492q0 -82 19 -132q39 -109 151.5 -108.5t151.5 108.5 q18 49 18 132v163q0 82 -18 131q-39 109 -151.5 109t-151.5 -109q-18 -49 -19 -131v-163z" />
<glyph unicode="&#xf6;" horiz-adv-x="1134" d="M109 469v209q0 115 32 213q47 131 160 203.5t266.5 72.5t266 -72.5t159.5 -203.5q33 -98 33 -213v-209q0 -115 -33 -213q-47 -131 -159.5 -203.5t-266 -72.5t-266.5 72.5t-160 203.5q-32 98 -32 213zM215 1319v268h256v-268h-256zM397 492q0 -82 19 -132 q39 -109 151.5 -108.5t151.5 108.5q18 49 18 132v163q0 82 -18 131q-39 109 -151.5 109t-151.5 -109q-18 -49 -19 -131v-163zM664 1319v268h256v-268h-256z" />
<glyph unicode="&#xf7;" horiz-adv-x="1179" d="M51 494v241h1077v-241h-1077zM453 61v281h264v-281h-264zM453 887v280h264v-280h-264z" />
<glyph unicode="&#xf8;" horiz-adv-x="1134" d="M109 469v209q0 115 32 213q47 131 160 203.5t266 72.5q117 0 209 -43l47 95h144l-82 -164q72 -66 108 -164q33 -98 33 -213v-209q0 -115 -33 -213q-47 -131 -159.5 -203.5t-266.5 -72.5q-113 0 -207 40l-45 -92h-143l80 160q-74 68 -111 168q-32 98 -32 213zM397 492 q0 -70 13 -113l247 489q-39 27 -90 27q-113 0 -151 -109q-18 -49 -19 -131v-163zM479 274q39 -23 88 -22q113 0 152 108q18 49 18 132v163q0 61 -12 109z" />
<glyph unicode="&#xf9;" horiz-adv-x="1218" d="M139 459v688h289v-662q0 -78 14 -118q35 -113 152 -113q53 0 100 38t72 93q18 43 18 115v647h289v-1147h-190l-25 145h-2q-104 -166 -319 -165q-143 0 -241.5 76.5t-135.5 215.5q-21 70 -21 187zM248 1642l2 25h317l240 -383h-199z" />
<glyph unicode="&#xfa;" horiz-adv-x="1218" d="M139 459v688h289v-662q0 -78 14 -118q35 -113 152 -113q53 0 100 38t72 93q18 43 18 115v647h289v-1147h-190l-25 145h-2q-104 -166 -319 -165q-143 0 -241.5 76.5t-135.5 215.5q-21 70 -21 187zM420 1284l239 383h318l2 -25l-361 -358h-198z" />
<glyph unicode="&#xfb;" horiz-adv-x="1218" d="M139 459v688h289v-662q0 -78 14 -118q35 -113 152 -113q53 0 100 38t72 93q18 43 18 115v647h289v-1147h-190l-25 145h-2q-104 -166 -319 -165q-143 0 -241.5 76.5t-135.5 215.5q-21 70 -21 187zM168 1286l342 420h197l342 -420h-238l-203 232l-202 -232h-238z" />
<glyph unicode="&#xfc;" horiz-adv-x="1218" d="M139 459v688h289v-662q0 -78 14 -118q35 -113 152 -113q53 0 100 38t72 93q18 43 18 115v647h289v-1147h-190l-25 145h-2q-104 -166 -319 -165q-143 0 -241.5 76.5t-135.5 215.5q-21 70 -21 187zM256 1319v268h256v-268h-256zM705 1319v268h256v-268h-256z" />
<glyph unicode="&#xfd;" horiz-adv-x="1122" d="M14 -143q115 -25 176 -25q156 0 213 170l15 41l-402 1104h306l245 -756h4l232 756h305l-424 -1198q-139 -391 -465 -391q-109 0 -205 26v273zM401 1284l240 383h317l3 -25l-361 -358h-199z" />
<glyph unicode="&#xfe;" horiz-adv-x="1191" d="M150 -500v2108h288v-447l-2 -119h2q111 125 273 125q125 0 220 -77.5t132 -215.5q20 -70 20 -186v-215q0 -113 -18 -186q-37 -147 -135.5 -227t-222.5 -80q-162 0 -269 104h-2q2 -68 2 -119v-465h-288zM438 500q0 -57 11 -103q18 -63 64 -105t108 -42q125 0 161 125 q12 43 13 114v170q0 78 -15 119q-35 113 -151 113q-53 0 -100.5 -38t-71.5 -93q-18 -43 -19 -115v-145z" />
<glyph unicode="&#xff;" horiz-adv-x="1122" d="M14 -143q115 -25 176 -25q156 0 213 170l15 41l-402 1104h306l245 -756h4l232 756h305l-424 -1198q-139 -391 -465 -391q-109 0 -205 26v273zM209 1319v268h256v-268h-256zM657 1319v268h256v-268h-256z" />
<glyph unicode="&#x152;" horiz-adv-x="1810" d="M109 537v462q0 139 36 236q84 203 301 274q78 27 189 27h1073v-276h-571v-334h460v-277h-460v-373h571v-276h-1073q-111 0 -189 27q-217 72 -301 274q-36 97 -36 236zM408 532q0 -104 22 -147q31 -66 98 -92q43 -16 107 -17h203v984h-203q-63 0 -107 -17q-68 -27 -98 -92 q-23 -43 -22 -147v-472z" />
<glyph unicode="&#x153;" horiz-adv-x="1722" d="M88 469v209q0 115 33 213q100 276 405 276q231 0 336 -180q102 180 342 180q203 0 316.5 -139t113.5 -350v-182h-628v-29q0 -82 18 -131q39 -109 152 -109q115 0 155 125h293q-18 -160 -133 -266t-274 -106q-252 0 -355 178q-100 -178 -336 -178q-305 0 -405 276 q-33 98 -33 213zM377 492q0 -82 18 -132q39 -109 151.5 -108.5t151.5 108.5q18 49 19 132v163q0 82 -19 131q-39 109 -151.5 109t-151.5 -109q-18 -49 -18 -131v-163zM1006 713h340q-2 63 -19 104q-39 109 -151.5 109t-151.5 -109q-16 -38 -18 -104z" />
<glyph unicode="&#x178;" horiz-adv-x="1265" d="M2 1536h338l289 -565h4l293 565h338l-482 -862v-674h-299v672zM281 1688v268h256v-268h-256zM729 1688v268h256v-268h-256z" />
<glyph unicode="&#x2c6;" horiz-adv-x="1097" d="M109 1348l342 419h196l342 -419h-237l-203 231l-203 -231h-237z" />
<glyph unicode="&#x2dc;" horiz-adv-x="1097" d="M129 1376q8 152 77.5 237t178.5 85q92 0 186 -70q16 -12 39 -29.5t31 -23.5t22.5 -13.5t26.5 -9.5t29 -2q23 0 44 26t28 85h180q-8 -152 -78 -237t-178 -85q-92 0 -187 70q-16 12 -38.5 29.5t-30.5 23.5t-22.5 13.5t-27 9.5t-28.5 2q-23 0 -44.5 -25.5t-27.5 -85.5h-180z " />
<glyph unicode="&#x2000;" horiz-adv-x="1064" />
<glyph unicode="&#x2001;" horiz-adv-x="2131" />
<glyph unicode="&#x2002;" horiz-adv-x="1064" />
<glyph unicode="&#x2003;" horiz-adv-x="2131" />
<glyph unicode="&#x2004;" horiz-adv-x="710" />
<glyph unicode="&#x2005;" horiz-adv-x="532" />
<glyph unicode="&#x2006;" horiz-adv-x="354" />
<glyph unicode="&#x2007;" horiz-adv-x="354" />
<glyph unicode="&#x2008;" horiz-adv-x="266" />
<glyph unicode="&#x2009;" horiz-adv-x="425" />
<glyph unicode="&#x200a;" horiz-adv-x="116" />
<glyph unicode="&#x2010;" horiz-adv-x="905" d="M78 678v242h749v-242h-749z" />
<glyph unicode="&#x2011;" horiz-adv-x="905" d="M78 678v242h749v-242h-749z" />
<glyph unicode="&#x2012;" horiz-adv-x="905" d="M78 678v242h749v-242h-749z" />
<glyph unicode="&#x2013;" horiz-adv-x="1191" d="M88 678v242h1016v-242h-1016z" />
<glyph unicode="&#x2014;" horiz-adv-x="1427" d="M88 678v242h1262v-242h-1262z" />
<glyph unicode="&#x2018;" horiz-adv-x="505" d="M88 948v254q0 100 16 158q59 256 324 291v-119q-178 -55 -178 -219q0 -29 26 -29h146v-336h-334z" />
<glyph unicode="&#x2019;" horiz-adv-x="454" d="M57 948v119q178 55 179 219q0 29 -27 29h-146v336h334v-254q0 -100 -16 -158q-60 -256 -324 -291z" />
<glyph unicode="&#x201a;" horiz-adv-x="522" d="M78 -260q186 59 186 231q0 29 -26 29h-154v354h350v-268q0 -102 -16 -166q-63 -266 -340 -305v125z" />
<glyph unicode="&#x201c;" horiz-adv-x="956" d="M82 948v254q0 100 16 158q59 256 322 291v-119q-176 -55 -176 -219q0 -29 24 -29h148v-336h-334zM535 948v254q0 109 14 158q59 256 323 291v-119q-178 -55 -178 -219q0 -29 27 -29h145v-336h-331z" />
<glyph unicode="&#x201d;" horiz-adv-x="956" d="M88 948v119q178 57 178 219q0 29 -26 29h-146v336h332v-254q0 -106 -14 -158q-60 -256 -324 -291zM541 948v119q176 55 176 219q0 29 -25 29h-147v336h334v-254q0 -100 -17 -158q-59 -254 -321 -291z" />
<glyph unicode="&#x201e;" horiz-adv-x="997" d="M78 -260q186 59 186 231q0 29 -26 29h-154v354h350v-268q0 -102 -16 -166q-63 -266 -340 -305v125zM553 -260q186 59 186 231q0 29 -26 29h-154v354h350v-268q0 -102 -16 -166q-63 -266 -340 -305v125z" />
<glyph unicode="&#x2022;" horiz-adv-x="706" d="M119 604v486h469v-486h-469z" />
<glyph unicode="&#x2026;" horiz-adv-x="1533" d="M100 0v354h342v-354h-342zM596 0v354h342v-354h-342zM1092 0v354h342v-354h-342z" />
<glyph unicode="&#x202f;" horiz-adv-x="425" />
<glyph unicode="&#x2039;" horiz-adv-x="673" d="M53 627l522 542v-297l-251 -245l251 -246v-297z" />
<glyph unicode="&#x203a;" horiz-adv-x="673" d="M98 84v297l252 246l-252 245v297l523 -542z" />
<glyph unicode="&#x205f;" horiz-adv-x="532" />
<glyph unicode="&#x20ac;" horiz-adv-x="1179" d="M18 520l54 164h129v143h-183l54 164h131v68q0 223 139 360t334 137q188 0 324.5 -116.5t148.5 -327.5h-262q-37 201 -215 201q-86 0 -146.5 -67.5t-60.5 -192.5v-62h436l-59 -164h-379v-143h336l-58 -164h-276v-37q0 -127 60.5 -193.5t150.5 -66.5q170 0 209 197h264 q-16 -211 -149.5 -325.5t-327.5 -114.5q-193 0 -331 137t-138 360v43h-185z" />
<glyph unicode="&#x2122;" horiz-adv-x="1202" d="M33 1421v115h446v-115h-160v-499h-122v499h-164zM545 922v614h147l135 -449l140 449h147v-616h-106v423l-136 -421h-86l-135 424v-424h-106z" />
<glyph unicode="&#xe000;" horiz-adv-x="1145" d="M0 1145h1145v-1145h-1145v1145z" />
<glyph unicode="&#xfb01;" horiz-adv-x="1251" d="M37 899v248h170v67q0 416 444 416q90 0 146 -6v-270q-49 4 -103 4q-104 0 -151 -36t-47 -126v-49h610v-1147h-289v899h-321v-899h-289v899h-170z" />
<glyph unicode="&#xfb02;" horiz-adv-x="1286" d="M37 899v248h170v67q0 416 444 416q250 0 490 -22v-1608h-289v1354q-59 4 -158 4q-104 0 -151 -36t-47 -126v-49h231v-248h-231v-899h-289v899h-170z" />
<glyph unicode="&#xfb03;" horiz-adv-x="2131" d="M1704 0v1147h289v-1147h-289zM1704 1311v288h289v-288h-289zM819 899v248h170v67q0 416 444 416q70 0 125 -6v-270q-49 4 -82 4q-104 0 -151 -36t-47 -126v-49h252v-248h-252v-899h-289v899h-170zM37 899v248h170v67q0 416 444 416q70 0 125 -6v-270q-49 4 -82 4 q-104 0 -151 -36t-47 -126v-49h252v-248h-252v-899h-289v899h-170z" />
<glyph unicode="&#xfb04;" horiz-adv-x="2144" d="M1710 0v1608h289v-1608h-289zM819 899v248h170v67q0 416 444 416q70 0 125 -6v-270q-49 4 -82 4q-104 0 -151 -36t-47 -126v-49h252v-248h-252v-899h-289v899h-170zM37 899v248h170v67q0 416 444 416q70 0 125 -6v-270q-49 4 -82 4q-104 0 -151 -36t-47 -126v-49h252 v-248h-252v-899h-289v899h-170z" />
<glyph horiz-adv-x="450" />
</font>
</defs>
</svg>
